<svg width="1176" height="263" viewBox="0 0 1176 263" fill="none" xmlns="http://www.w3.org/2000/svg">
<path d="M1050.38 75.3816C1048.61 76.4297 1047.24 72.6366 1047.18 71.2612C1046.48 55.3734 1053.91 34.563 1057.73 19.0389C1058.99 13.9039 1059.54 6.27922 1061.3 1.59362C1061.61 0.758977 1062.18 0.41984 1063.06 0.620827C1062.78 2.78369 1064.29 3.67148 1066.26 3.90322C1066.99 3.81289 1067.76 -2.26824 1072.15 3.29242C1071 8.85659 1071.13 14.6486 1070.04 20.2266C1068.14 29.974 1063.28 40.4678 1059.91 49.8935C1056.83 58.5051 1055.09 67.3683 1050.37 75.3815L1050.38 75.3816ZM1058.83 25.7533L1059.7 20.2406C1058.84 20.2608 1058.47 23.0079 1058.39 23.6543C1058.3 24.346 1057.72 25.8397 1058.83 25.7533Z" fill="#FF93CF"/>
<path d="M1134.9 56.5859C1122.59 70.6665 1105.09 85.3516 1089.34 95.6982C1085.1 98.4847 1085.2 96.9177 1081.31 94.7534C1080.77 94.068 1081.16 93.5351 1081.45 92.8928C1082.1 91.4184 1087.45 85.6605 1088.92 84.2418C1094.62 78.7361 1101.86 74.1011 1107.57 69.0685C1114.23 63.1929 1125.16 49.979 1133.12 47.2167C1134.41 46.7701 1142.01 45.0442 1142.59 45.6214L1139.11 52.4739C1138.15 54.0287 1135.94 55.387 1134.9 56.5857L1134.9 56.5859Z" fill="#FF93CF"/>
<path d="M1089.54 138.939C1092.04 137.559 1091.68 134.822 1092.4 133.656C1094.75 129.839 1117.99 125.492 1123.59 124.121C1132.61 121.912 1140.04 121.637 1149.24 120.488C1152.32 120.101 1166.22 117.063 1167.75 118.089C1169.78 119.451 1167.98 122.566 1168.14 122.746L1170 122.835C1172.56 125.742 1159.72 127.851 1158.52 128.068C1150.32 129.541 1141.9 129.884 1133.65 131.247C1122.32 133.118 1107.86 138.092 1097.12 139.143C1094.6 139.389 1092.06 138.973 1089.55 138.942L1089.54 138.939Z" fill="#FF93CF"/>
<path d="M51.8 197.4C64.8 197.4 74 185.2 74 167.6C74 147.4 66.8 137.2 51.6 137.2C37.2 137.2 29.8 147.8 29.8 169.2C29.8 185.8 39.4 197.4 51.8 197.4ZM30.2 216H5.2V81.6H30.8V130.4C38.2 120 47.8 115 60 115C85.4 115 100.4 136 100.4 165.8C100.4 199 82.6 218.6 57.8 218.6C45.8 218.6 36.6 214 30.4 204L30.2 216ZM158.483 196.8C174.283 196.8 182.283 186.8 182.283 166.8C182.283 146.8 174.283 137 158.483 137C142.683 137 134.683 146.8 134.683 166.8C134.683 186.8 142.683 196.8 158.483 196.8ZM158.483 218.6C126.683 218.6 107.883 197.4 107.883 166.8C107.883 135.6 127.283 115 158.483 115C189.283 115 208.483 135.4 208.483 166.8C208.483 198 189.083 218.6 158.483 218.6ZM306.495 216H281.895V202.2C275.095 213.4 264.895 218.6 251.295 218.6C231.695 218.6 217.895 204 217.895 182.4V117.6H243.895V178.4C243.895 190.8 249.495 196.8 260.495 196.8C273.695 196.8 280.695 187.4 280.695 174.4V117.6H306.495V216ZM343.895 216H317.895V81.6H343.895V216ZM379.409 157.2H419.609C419.209 142.6 409.609 135.6 399.409 135.6C389.009 135.6 380.409 143.6 379.409 157.2ZM446.409 173.6H378.609C379.409 188.4 387.809 198 400.609 198C409.009 198 416.409 193.8 418.209 187H445.009C439.009 207.2 422.809 218.6 401.809 218.6C369.009 218.6 352.609 200.6 352.609 165C352.609 134.6 370.009 115 400.209 115C430.409 115 446.409 134.6 446.409 173.6Z" fill="#311C39"/>
<path d="M691.4 216H665.2V156.4C665.2 141.2 660.8 137 648.4 137C634.8 137 628.2 144.6 628.2 159.6V216H602.2V117.6H627V132C633 121 643 115 658.8 115C677.6 115 691.4 126.4 691.4 147.8V216ZM727.386 157.2H767.586C767.186 142.6 757.586 135.6 747.386 135.6C736.986 135.6 728.386 143.6 727.386 157.2ZM794.386 173.6H726.586C727.386 188.4 735.786 198 748.586 198C756.986 198 764.386 193.8 766.186 187H792.986C786.986 207.2 770.786 218.6 749.786 218.6C716.986 218.6 700.586 200.6 700.586 165C700.586 134.6 717.986 115 748.186 115C778.386 115 794.386 134.6 794.386 173.6ZM829.972 216H803.972V117.6H829.972V216ZM829.972 105.8H803.972V81.6H829.972V105.8ZM889.049 196.4C901.649 196.4 911.249 185.8 911.249 169.2C911.249 147.8 903.849 137.6 889.049 137.6C874.449 137.6 866.849 147.4 866.849 167.6C866.849 185.2 876.249 196.4 889.049 196.4ZM910.449 219V202.8C906.849 211.6 896.249 216.8 883.449 216.8C851.049 216.8 839.849 192 839.849 166.2C839.849 135.6 859.049 115 882.849 115C895.249 115 904.249 119.8 910.449 129.8V117.6H936.449V217C936.449 246.6 914.849 262.6 887.449 262.6C860.049 262.6 839.849 246.8 839.849 221.4H864.049C864.049 233.2 872.649 240.2 885.649 240.2C899.449 240.2 910.449 232 910.449 219ZM972.504 157.2H1012.7C1012.3 142.6 1002.7 135.6 992.504 135.6C982.104 135.6 973.504 143.6 972.504 157.2ZM1039.5 173.6H971.704C972.504 188.4 980.904 198 993.704 198C1002.1 198 1009.5 193.8 1011.3 187H1038.1C1032.1 207.2 1015.9 218.6 994.904 218.6C962.104 218.6 945.704 200.6 945.704 165C945.704 134.6 963.104 115 993.304 115C1023.5 115 1039.5 134.6 1039.5 173.6Z" fill="#311C39"/>
<path d="M473.526 231.71L480.004 235.49L480.005 235.49L473.526 231.71ZM485.682 224.677L482.067 218.106L482.067 218.106L485.682 224.677ZM525.028 120.531L530.446 115.345L530.446 115.345L525.028 120.531ZM568.824 202.7C571.608 205.767 576.351 205.997 579.418 203.213C582.485 200.429 582.715 195.686 579.931 192.618L574.377 197.659L568.824 202.7ZM473.526 231.71L467.049 227.93C467.091 227.858 467.203 227.668 467.363 227.436C467.475 227.28 467.872 226.783 468.172 226.458C470.682 224.771 479.356 226.991 480.887 233.147C480.725 233.816 480.407 234.694 480.305 234.919C480.255 235.024 480.162 235.205 480.122 235.281C480.046 235.422 479.98 235.533 479.941 235.597C479.786 235.852 479.645 236.049 479.556 236.17C479.362 236.433 479.183 236.638 479.056 236.776C478.804 237.051 478.586 237.246 478.468 237.349C478.338 237.461 478.235 237.542 478.178 237.586C478.117 237.632 478.078 237.659 478.069 237.666C478.066 237.668 478.294 237.509 479.012 237.074C480.423 236.219 483.353 234.519 489.298 231.248L485.682 224.677L482.067 218.106C476.067 221.407 472.918 223.227 471.235 224.247C470.407 224.749 469.836 225.117 469.419 225.411C469.22 225.552 468.941 225.756 468.648 226.01C468.501 226.137 468.266 226.349 468.006 226.632C467.875 226.776 467.694 226.984 467.498 227.249C467.408 227.37 467.267 227.568 467.112 227.823C467.073 227.888 467.007 227.998 466.931 228.139C466.89 228.216 466.798 228.396 466.747 228.502C466.646 228.726 466.328 229.604 466.165 230.273C467.697 236.429 476.371 238.65 478.88 236.962C479.181 236.637 479.578 236.141 479.69 235.984C479.85 235.752 479.962 235.562 480.004 235.49L473.526 231.71ZM474.823 149.915L482.202 151.254C482.764 148.161 484.613 143.915 487.723 139.396C490.781 134.952 494.737 130.715 498.98 127.543C503.287 124.322 507.402 122.555 510.833 122.241C513.907 121.96 516.794 122.776 519.609 125.717L525.028 120.531L530.446 115.345C524.382 109.011 516.962 106.618 509.467 107.304C502.329 107.956 495.613 111.33 489.996 115.53C484.314 119.78 479.252 125.246 475.366 130.892C471.532 136.464 468.511 142.696 467.444 148.576L474.823 149.915ZM525.028 120.531L519.609 125.717C522.302 128.531 523.415 133.612 520.768 142.762C518.194 151.663 512.622 162.236 505.638 173.264C498.714 184.199 490.716 195.099 483.61 204.652C476.694 213.949 470.249 222.445 467.048 227.931L473.526 231.71L480.005 235.49C482.657 230.943 488.345 223.418 495.645 213.605C502.754 204.048 511.055 192.747 518.311 181.289C525.509 169.924 532.002 157.91 535.178 146.93C538.281 136.2 538.83 124.105 530.446 115.345L525.028 120.531ZM485.682 224.677L489.298 231.248C495.755 227.695 503.471 222.712 511.182 217.935C519.064 213.052 527.184 208.223 535.047 204.515C542.996 200.766 550.096 198.452 555.99 198.109C561.585 197.784 565.664 199.219 568.824 202.7L574.377 197.659L579.931 192.618C573.053 185.041 564.142 182.61 555.119 183.134C546.395 183.642 537.248 186.893 528.649 190.948C519.962 195.045 511.231 200.26 503.282 205.184C495.163 210.214 488.071 214.802 482.067 218.106L485.682 224.677Z" fill="#FF93CF"/>
</svg>
